<svg xmlns="http://www.w3.org/2000/svg" xmlns:xlink="http://www.w3.org/1999/xlink" width="500" zoomAndPan="magnify" viewBox="0 0 375 374.999991" height="500" preserveAspectRatio="xMidYMid meet" version="1.0"><defs><g/></defs><g fill="#06f147" fill-opacity="1"><g transform="translate(4.067054, 316.050613)"><g><path d="M 75.6875 25.515625 C 64.207031 25.515625 55.351562 22.625 49.125 16.84375 C 42.90625 11.0625 39.796875 2.394531 39.796875 -9.15625 L 39.796875 -52.484375 C 39.796875 -59.972656 38.226562 -65.242188 35.09375 -68.296875 C 31.957031 -71.347656 26.726562 -72.875 19.40625 -72.875 L 9.640625 -72.875 L 9.640625 -90.203125 L 19.40625 -90.203125 C 26.726562 -90.203125 31.957031 -91.75 35.09375 -94.84375 C 38.226562 -97.9375 39.796875 -103.226562 39.796875 -110.71875 L 39.796875 -154.046875 C 39.796875 -165.609375 42.90625 -174.273438 49.125 -180.046875 C 55.351562 -185.828125 64.207031 -188.71875 75.6875 -188.71875 L 88.25 -188.71875 L 88.25 -172.859375 L 78.25 -172.859375 C 71.570312 -172.859375 66.625 -171.332031 63.40625 -168.28125 C 60.195312 -165.226562 58.59375 -160.484375 58.59375 -154.046875 L 58.59375 -112.1875 C 58.59375 -103.96875 57.023438 -97.597656 53.890625 -93.078125 C 50.753906 -88.554688 46.140625 -85.160156 40.046875 -82.890625 L 40.046875 -80.328125 C 46.140625 -78.046875 50.753906 -74.644531 53.890625 -70.125 C 57.023438 -65.613281 58.59375 -59.25 58.59375 -51.03125 L 58.59375 -9.15625 C 58.59375 -2.726562 60.195312 2.007812 63.40625 5.0625 C 66.625 8.113281 71.570312 9.640625 78.25 9.640625 L 88.25 9.640625 L 88.25 25.515625 Z M 75.6875 25.515625 "/></g></g></g><g fill="#06f147" fill-opacity="1"><g transform="translate(273.501023, 316.050613)"><g><path d="M 8.796875 25.515625 L 8.796875 9.640625 L 18.671875 9.640625 C 25.347656 9.640625 30.289062 8.113281 33.5 5.0625 C 36.71875 2.007812 38.328125 -2.726562 38.328125 -9.15625 L 38.328125 -51.03125 C 38.328125 -59.25 39.894531 -65.613281 43.03125 -70.125 C 46.164062 -74.644531 50.820312 -78.046875 57 -80.328125 L 57 -82.890625 C 50.820312 -85.160156 46.164062 -88.554688 43.03125 -93.078125 C 39.894531 -97.597656 38.328125 -103.96875 38.328125 -112.1875 L 38.328125 -154.046875 C 38.328125 -160.484375 36.71875 -165.226562 33.5 -168.28125 C 30.289062 -171.332031 25.347656 -172.859375 18.671875 -172.859375 L 8.796875 -172.859375 L 8.796875 -188.71875 L 21.234375 -188.71875 C 32.710938 -188.71875 41.582031 -185.828125 47.84375 -180.046875 C 54.113281 -174.273438 57.25 -165.609375 57.25 -154.046875 L 57.25 -110.71875 C 57.25 -103.226562 58.816406 -97.9375 61.953125 -94.84375 C 65.085938 -91.75 70.316406 -90.203125 77.640625 -90.203125 L 87.28125 -90.203125 L 87.28125 -72.875 L 77.640625 -72.875 C 70.316406 -72.875 65.085938 -71.347656 61.953125 -68.296875 C 58.816406 -65.242188 57.25 -59.972656 57.25 -52.484375 L 57.25 -9.15625 C 57.25 2.394531 54.113281 11.0625 47.84375 16.84375 C 41.582031 22.625 32.710938 25.515625 21.234375 25.515625 Z M 8.796875 25.515625 "/></g></g></g><g fill="#ff5757" fill-opacity="1"><g transform="translate(139.944195, 388.983534)"><g><path d="M 82.15625 -77.765625 L 12.703125 -77.765625 L 12.703125 -95.578125 L 82.15625 -95.578125 Z M 82.15625 -77.765625 "/></g></g></g><g fill="#5271ff" fill-opacity="1"><g transform="translate(76.037109, 214.783419)"><g><path d="M 35.46875 1.3125 C 30.457031 1.3125 26.5 -0.09375 23.59375 -2.90625 C 20.695312 -5.71875 19.25 -9.453125 19.25 -14.109375 C 19.25 -18.679688 20.695312 -22.4375 23.59375 -25.375 C 26.5 -28.320312 30.457031 -29.796875 35.46875 -29.796875 C 40.5625 -29.796875 44.554688 -28.390625 47.453125 -25.578125 C 50.359375 -22.765625 51.8125 -19.03125 51.8125 -14.375 C 51.8125 -9.71875 50.335938 -5.9375 47.390625 -3.03125 C 44.453125 -0.132812 40.476562 1.3125 35.46875 1.3125 Z M 35.46875 1.3125 "/></g></g></g><g fill="#5271ff" fill-opacity="1"><g transform="translate(228.65038, 214.782891)"><g><path d="M 35.46875 1.3125 C 30.457031 1.3125 26.5 -0.09375 23.59375 -2.90625 C 20.695312 -5.71875 19.25 -9.453125 19.25 -14.109375 C 19.25 -18.679688 20.695312 -22.4375 23.59375 -25.375 C 26.5 -28.320312 30.457031 -29.796875 35.46875 -29.796875 C 40.5625 -29.796875 44.554688 -28.390625 47.453125 -25.578125 C 50.359375 -22.765625 51.8125 -19.03125 51.8125 -14.375 C 51.8125 -9.71875 50.335938 -5.9375 47.390625 -3.03125 C 44.453125 -0.132812 40.476562 1.3125 35.46875 1.3125 Z M 35.46875 1.3125 "/></g></g></g><g fill="#e2b808" fill-opacity="1"><g transform="translate(65.855933, 268.972683)"><g><path d="M 58.59375 -150.390625 L 44.0625 -150.390625 L 12.703125 -186.15625 L 12.703125 -188.71875 L 37.71875 -188.71875 L 58.59375 -152.953125 Z M 58.59375 -150.390625 "/></g></g><g transform="translate(137.388413, 268.972683)"><g><path d="M 58.59375 -150.390625 L 44.0625 -150.390625 L 12.703125 -186.15625 L 12.703125 -188.71875 L 37.71875 -188.71875 L 58.59375 -152.953125 Z M 58.59375 -150.390625 "/></g></g><g transform="translate(208.920894, 268.972683)"><g><path d="M 58.59375 -150.390625 L 44.0625 -150.390625 L 12.703125 -186.15625 L 12.703125 -188.71875 L 37.71875 -188.71875 L 58.59375 -152.953125 Z M 58.59375 -150.390625 "/></g></g></g></svg>